<?xml version="1.0" encoding="UTF-8" standalone="no"?>
<svg
   enable-background="new 0 0 580 580"
   height="580"
   viewBox="0 0 580 580"
   width="580"
   version="1.1"
   id="svg3"
   xmlns="http://www.w3.org/2000/svg"
   xmlns:svg="http://www.w3.org/2000/svg">
  <defs
     id="defs3" />
  <path
     d="m 375.979,362.932 h -168.92 c -5.561,0 -10.068,4.508 -10.068,10.068 v 168.921 c 0,5.561 4.507,10.068 10.068,10.068 h 168.92 c 5.561,0 10.068,-4.508 10.068,-10.068 V 373 c 10e-4,-5.561 -4.507,-10.068 -10.068,-10.068 z"
     fill="none"
     stroke="param(outline)"
     stroke-width="param(outline-width)"
     id="path3" />
  <path
     d="m 357.51636,189.86496 -10.1638,-0.1784 -1.96381,-116.179301 v -1.880146 l -55.38945,0.940073 -55.38945,-0.940073 v 1.880146 l -1.96241,116.179301 -10.16379,0.1784 h -98.13703 v 1.72782 51.2127 52.94052 1.01692 l 108.9267,0.71089 1.33653,151.39154 v 58.25296 c 2.84541,-0.31702 5.7332,-0.53385 8.65208,-0.68207 14.84587,2.53065 30.75135,2.13678 46.73878,1.30101 15.98601,0.8344 31.89149,1.22964 46.73736,-1.30101 2.91747,0.14822 5.80526,0.36505 8.65068,0.68207 v -58.19532 l 1.33652,-151.44918 108.92811,-0.71089 v -1.01692 -52.94052 -51.2127 -1.72782 z"
     fill="param(fill)"
     fill-opacity="param(fill-opacity)"
     stroke="param(outline)"
     stroke-opacity="param(outline-opacity)"
     stroke-width="1.39245"
     id="path1" />
</svg>
