<svg xmlns="http://www.w3.org/2000/svg" viewBox="0 0 24 24" width="24" height="24" fill="none">
  <!-- soft container -->
  <rect x="3" y="3" width="18" height="18" rx="6" fill="currentColor" opacity="0.12"/>

  <!-- leaf crown -->
  <path
    d="M12 6.3C12.92 5.42 14.18 5.02 15.18 5.28C14.96 6.14 14.28 6.77 13.43 7.01C13.87 7.06 14.34 7.24 14.76 7.58C13.89 7.95 12.86 7.87 12 7.35C11.14 7.87 10.11 7.95 9.24 7.58C9.66 7.24 10.13 7.06 10.57 7.01C9.72 6.77 9.04 6.14 8.82 5.28C9.82 5.02 11.08 5.42 12 6.3Z"
    fill="currentColor"
  />

  <!-- stem -->
  <path
    d="M12 5.4V6.9"
    stroke="currentColor"
    stroke-width="1.5"
    stroke-linecap="round"
  />

  <!-- tomato -->
  <path
    d="M12 7.8C8.88 7.8 6.6 9.88 6.6 12.95C6.6 16.01 8.89 18.3 12 18.3C15.11 18.3 17.4 16.01 17.4 12.95C17.4 9.88 15.12 7.8 12 7.8Z"
    fill="currentColor"
  />

  <!-- timer hand -->
  <circle cx="12" cy="13" r="0.9" fill="white" fill-opacity="0.95"/>
  <path
    d="M12 13L12 10.6"
    stroke="white"
    stroke-opacity="0.95"
    stroke-width="1.4"
    stroke-linecap="round"
  />
  <path
    d="M12 13L13.7 13.9"
    stroke="white"
    stroke-opacity="0.95"
    stroke-width="1.4"
    stroke-linecap="round"
  />
</svg>