<svg xmlns="http://www.w3.org/2000/svg" viewBox="0 0 24 24" width="24" height="24" fill="none">
  <!-- expressive background -->
  <path
    d="M7 3.25H15.4C18.78 3.25 20.75 5.22 20.75 8.6V15.1C20.75 18.48 18.78 20.75 15.4 20.75H8.6C5.22 20.75 3.25 18.78 3.25 15.4V7A3.75 3.75 0 0 1 7 3.25Z"
    fill="currentColor"
    opacity="0.12"
  />

  <!-- top tab -->
  <path
    d="M10.9 6.45C10.9 5.84 11.39 5.35 12 5.35C12.61 5.35 13.1 5.84 13.1 6.45V6.9C13.1 7.08 12.96 7.22 12.78 7.22H11.22C11.04 7.22 10.9 7.08 10.9 6.9V6.45Z"
    fill="currentColor"
  />

  <!-- bell -->
  <path
    d="M12 7.95C10.29 7.95 8.9 9.34 8.9 11.05V12.62C8.9 13.03 8.74 13.6 8.48 13.97L7.72 15.05C7.42 15.47 7.72 16.05 8.23 16.05H15.77C16.28 16.05 16.58 15.47 16.28 15.05L15.52 13.97C15.26 13.6 15.1 13.03 15.1 12.62V11.05C15.1 9.34 13.71 7.95 12 7.95Z"
    fill="currentColor"
  />

  <!-- ring accent -->
  <path
    d="M17.2 8.35C17.92 8.35 18.5 7.77 18.5 7.05C18.5 6.33 17.92 5.75 17.2 5.75C16.48 5.75 15.9 6.33 15.9 7.05C15.9 7.77 16.48 8.35 17.2 8.35Z"
    fill="currentColor"
  />

  <!-- bottom curve -->
  <path
    d="M10.2 17.2C10.43 18.01 11.16 18.6 12 18.6C12.84 18.6 13.57 18.01 13.8 17.2"
    stroke="currentColor"
    stroke-width="1.8"
    stroke-linecap="round"
  />
</svg>