<svg xmlns="http://www.w3.org/2000/svg" viewBox="0 0 512 512">
  <defs>
    <linearGradient id="cloudFront" x1="99.5" x2="232.6" y1="30.7" y2="261.4" gradientUnits="userSpaceOnUse">
      <stop offset="0" stop-color="#f3f7fe"/>
      <stop offset="0.5" stop-color="#f3f7fe"/>
      <stop offset="1" stop-color="#deeafb"/>
    </linearGradient>
    <linearGradient id="cloudBack" x1="52.7" x2="133.4" y1="9.6" y2="149.3" gradientUnits="userSpaceOnUse">
      <stop offset="0" stop-color="#9ca3af"/>
      <stop offset="0.5" stop-color="#9ca3af"/>
      <stop offset="1" stop-color="#6b7280"/>
    </linearGradient>
  </defs>

  <g transform="translate(258 242)">
    <g>
      <animateTransform
        attributeName="transform"
        type="translate"
        values="-14 0; 14 0; -14 0"
        dur="6s"
        repeatCount="indefinite"/>
      <path
        transform="translate(-34 -34) scale(1.1)"
        fill="url(#cloudBack)"
        stroke="#848b98"
        stroke-miterlimit="10"
        d="M.5 93.2a32.4 32.4 0 0032.4 32.4h129.8v-.1l2.3.1a34.8 34.8 0 006.5-68.9 32.4 32.4 0 00-48.5-33 48.6 48.6 0 00-88.6 37.1h-1.5A32.4 32.4 0 00.5 93.1Z"/>
    </g>

    <g>
      <animateTransform
        attributeName="transform"
        type="translate"
        values="16 0; -16 0; 16 0"
        dur="6s"
        repeatCount="indefinite"/>
      <path
        transform="translate(-160 -105)"
        fill="url(#cloudFront)"
        stroke="#e6effc"
        stroke-miterlimit="10"
        stroke-width="6"
        d="m291 107-2.5.1A83.9 83.9 0 00135.6 43 56 56 0 0051 91a56.6 56.6 0 00.8 9A60 60 0 0063 219l4-.2v.2h224a56 56 0 000-112Z"/>
    </g>
  </g>
</svg>
