<svg xmlns="http://www.w3.org/2000/svg" viewBox="0 0 512 512">
  <defs>
    <linearGradient id="sunFill" x1="172" x2="268" y1="88" y2="254" gradientUnits="userSpaceOnUse">
      <stop offset="0" stop-color="#fbbf24"/>
      <stop offset=".5" stop-color="#fbbf24"/>
      <stop offset="1" stop-color="#f59e0b"/>
    </linearGradient>
    <linearGradient id="cloudFill" x1="126" x2="312" y1="164" y2="386" gradientUnits="userSpaceOnUse">
      <stop offset="0" stop-color="#f3f7fe"/>
      <stop offset=".5" stop-color="#f3f7fe"/>
      <stop offset="1" stop-color="#deeafb"/>
    </linearGradient>
  </defs>

  <g transform="translate(0 6)">
    <circle cx="214" cy="182" r="72" fill="url(#sunFill)" stroke="#f8af18" stroke-width="6"/>
    <g fill="none" stroke="#fbbf24" stroke-linecap="round" stroke-width="18">
      <path d="M214 76V36">
        <animateTransform attributeName="transform" type="rotate" values="0 214 182;45 214 182" dur="6s" repeatCount="indefinite"/>
      </path>
      <path d="M214 328v-40">
        <animateTransform attributeName="transform" type="rotate" values="0 214 182;45 214 182" dur="6s" repeatCount="indefinite"/>
      </path>
      <path d="m289 107 29-29">
        <animateTransform attributeName="transform" type="rotate" values="0 214 182;45 214 182" dur="6s" repeatCount="indefinite"/>
      </path>
      <path d="m110 286 29-29">
        <animateTransform attributeName="transform" type="rotate" values="0 214 182;45 214 182" dur="6s" repeatCount="indefinite"/>
      </path>
      <path d="M108 182H68">
        <animateTransform attributeName="transform" type="rotate" values="0 214 182;45 214 182" dur="6s" repeatCount="indefinite"/>
      </path>
      <path d="M360 182h-40">
        <animateTransform attributeName="transform" type="rotate" values="0 214 182;45 214 182" dur="6s" repeatCount="indefinite"/>
      </path>
      <path d="m139 107-29-29">
        <animateTransform attributeName="transform" type="rotate" values="0 214 182;45 214 182" dur="6s" repeatCount="indefinite"/>
      </path>
      <path d="m318 286-29-29">
        <animateTransform attributeName="transform" type="rotate" values="0 214 182;45 214 182" dur="6s" repeatCount="indefinite"/>
      </path>
    </g>
  </g>

  <g>
    <path fill="url(#cloudFill)" stroke="#e6effc" stroke-width="6" d="M326 352H160c-42 0-76-31-76-69 0-31 22-58 53-66 10-55 58-96 116-96 53 0 99 34 113 82 40 2 72 32 72 69 0 44-50 80-112 80Z">
      <animateTransform attributeName="transform" type="translate" values="-10 0;10 0;-10 0" dur="6s" repeatCount="indefinite"/>
    </path>
    <path fill="#dbe7f8" opacity=".9" d="M342 287c-9-31-42-54-81-54-43 0-79 28-84 66-27 2-50 22-56 49 12-23 38-39 68-39h151c35 0 64 18 76 45 2-6 3-12 3-18 0-27-17-49-43-56-9-1-22 0-34 7Z">
      <animateTransform attributeName="transform" type="translate" values="-6 0;6 0;-6 0" dur="6s" repeatCount="indefinite"/>
    </path>
  </g>
</svg>
